<svg xmlns="http://www.w3.org/2000/svg" viewBox="0 0 64 64" role="img" aria-label="Songguo">
  <defs><clipPath id="sg-clip"><path d="M32 7.0 Q34.0 7.0 32.0 7.0 Q37.3 9.5 38.7 12.0 Q42.2 14.5 41.8 17.0 Q45.0 19.5 44.1 22.0 Q47.0 24.5 45.9 27.0 Q48.5 29.5 47.2 32.0 Q49.6 34.5 47.9 37.0 Q49.9 39.5 47.8 42.0 Q49.2 44.5 46.6 47.0 Q47.1 49.5 43.5 52.0 Q39.8 54.5 32.0 57.0 Q30.0 57.0 32.0 57.0 Q24.2 54.5 20.5 52.0 Q16.9 49.5 17.4 47.0 Q14.8 44.5 16.2 42.0 Q14.1 39.5 16.1 37.0 Q14.4 34.5 16.8 32.0 Q15.5 29.5 18.1 27.0 Q17.0 24.5 19.9 22.0 Q19.0 19.5 22.2 17.0 Q21.8 14.5 25.3 12.0 Q26.7 9.5 32.0 7.0 Z"/></clipPath></defs>
  <rect x="29.25" y="53.5" width="5.5" height="4.5" rx="1.88" fill="#225736"/>
  <g clip-path="url(#sg-clip)">
    <rect x="4" y="0" width="56" height="64" fill="#468861"/>
  <g fill="#72c495" stroke="#153621" stroke-width="0.7" stroke-opacity="0.5">
<circle cx="-9.0" cy="7.0" r="6.0"/><circle cx="0.0" cy="7.0" r="6.0"/><circle cx="9.0" cy="7.0" r="6.0"/><circle cx="18.0" cy="7.0" r="6.0"/><circle cx="27.0" cy="7.0" r="6.0"/><circle cx="36.0" cy="7.0" r="6.0"/><circle cx="45.0" cy="7.0" r="6.0"/><circle cx="54.0" cy="7.0" r="6.0"/><circle cx="63.0" cy="7.0" r="6.0"/><circle cx="72.0" cy="7.0" r="6.0"/>
</g>
  <g fill="#6ab98c" stroke="#153621" stroke-width="0.7" stroke-opacity="0.5">
<circle cx="-4.5" cy="12.1" r="6.0"/><circle cx="4.5" cy="12.1" r="6.0"/><circle cx="13.5" cy="12.1" r="6.0"/><circle cx="22.5" cy="12.1" r="6.0"/><circle cx="31.5" cy="12.1" r="6.0"/><circle cx="40.5" cy="12.1" r="6.0"/><circle cx="49.5" cy="12.1" r="6.0"/><circle cx="58.5" cy="12.1" r="6.0"/><circle cx="67.5" cy="12.1" r="6.0"/>
</g>
  <g fill="#62ae82" stroke="#153621" stroke-width="0.7" stroke-opacity="0.5">
<circle cx="-9.0" cy="17.2" r="6.0"/><circle cx="0.0" cy="17.2" r="6.0"/><circle cx="9.0" cy="17.2" r="6.0"/><circle cx="18.0" cy="17.2" r="6.0"/><circle cx="27.0" cy="17.2" r="6.0"/><circle cx="36.0" cy="17.2" r="6.0"/><circle cx="45.0" cy="17.2" r="6.0"/><circle cx="54.0" cy="17.2" r="6.0"/><circle cx="63.0" cy="17.2" r="6.0"/><circle cx="72.0" cy="17.2" r="6.0"/>
</g>
  <g fill="#5aa378" stroke="#153621" stroke-width="0.7" stroke-opacity="0.5">
<circle cx="-4.5" cy="22.3" r="6.0"/><circle cx="4.5" cy="22.3" r="6.0"/><circle cx="13.5" cy="22.3" r="6.0"/><circle cx="22.5" cy="22.3" r="6.0"/><circle cx="31.5" cy="22.3" r="6.0"/><circle cx="40.5" cy="22.3" r="6.0"/><circle cx="49.5" cy="22.3" r="6.0"/><circle cx="58.5" cy="22.3" r="6.0"/><circle cx="67.5" cy="22.3" r="6.0"/>
</g>
  <g fill="#52986f" stroke="#153621" stroke-width="0.7" stroke-opacity="0.5">
<circle cx="-9.0" cy="27.4" r="6.0"/><circle cx="0.0" cy="27.4" r="6.0"/><circle cx="9.0" cy="27.4" r="6.0"/><circle cx="18.0" cy="27.4" r="6.0"/><circle cx="27.0" cy="27.4" r="6.0"/><circle cx="36.0" cy="27.4" r="6.0"/><circle cx="45.0" cy="27.4" r="6.0"/><circle cx="54.0" cy="27.4" r="6.0"/><circle cx="63.0" cy="27.4" r="6.0"/><circle cx="72.0" cy="27.4" r="6.0"/>
</g>
  <g fill="#4a8e66" stroke="#153621" stroke-width="0.7" stroke-opacity="0.5">
<circle cx="-4.5" cy="32.5" r="6.0"/><circle cx="4.5" cy="32.5" r="6.0"/><circle cx="13.5" cy="32.5" r="6.0"/><circle cx="22.5" cy="32.5" r="6.0"/><circle cx="31.5" cy="32.5" r="6.0"/><circle cx="40.5" cy="32.5" r="6.0"/><circle cx="49.5" cy="32.5" r="6.0"/><circle cx="58.5" cy="32.5" r="6.0"/><circle cx="67.5" cy="32.5" r="6.0"/>
</g>
  <g fill="#42835c" stroke="#153621" stroke-width="0.7" stroke-opacity="0.5">
<circle cx="-9.0" cy="37.6" r="6.0"/><circle cx="0.0" cy="37.6" r="6.0"/><circle cx="9.0" cy="37.6" r="6.0"/><circle cx="18.0" cy="37.6" r="6.0"/><circle cx="27.0" cy="37.6" r="6.0"/><circle cx="36.0" cy="37.6" r="6.0"/><circle cx="45.0" cy="37.6" r="6.0"/><circle cx="54.0" cy="37.6" r="6.0"/><circle cx="63.0" cy="37.6" r="6.0"/><circle cx="72.0" cy="37.6" r="6.0"/>
</g>
  <g fill="#3a7852" stroke="#153621" stroke-width="0.7" stroke-opacity="0.5">
<circle cx="-4.5" cy="42.7" r="6.0"/><circle cx="4.5" cy="42.7" r="6.0"/><circle cx="13.5" cy="42.7" r="6.0"/><circle cx="22.5" cy="42.7" r="6.0"/><circle cx="31.5" cy="42.7" r="6.0"/><circle cx="40.5" cy="42.7" r="6.0"/><circle cx="49.5" cy="42.7" r="6.0"/><circle cx="58.5" cy="42.7" r="6.0"/><circle cx="67.5" cy="42.7" r="6.0"/>
</g>
  <g fill="#326d49" stroke="#153621" stroke-width="0.7" stroke-opacity="0.5">
<circle cx="-9.0" cy="47.8" r="6.0"/><circle cx="0.0" cy="47.8" r="6.0"/><circle cx="9.0" cy="47.8" r="6.0"/><circle cx="18.0" cy="47.8" r="6.0"/><circle cx="27.0" cy="47.8" r="6.0"/><circle cx="36.0" cy="47.8" r="6.0"/><circle cx="45.0" cy="47.8" r="6.0"/><circle cx="54.0" cy="47.8" r="6.0"/><circle cx="63.0" cy="47.8" r="6.0"/><circle cx="72.0" cy="47.8" r="6.0"/>
</g>
  <g fill="#2a6240" stroke="#153621" stroke-width="0.7" stroke-opacity="0.5">
<circle cx="-4.5" cy="52.9" r="6.0"/><circle cx="4.5" cy="52.9" r="6.0"/><circle cx="13.5" cy="52.9" r="6.0"/><circle cx="22.5" cy="52.9" r="6.0"/><circle cx="31.5" cy="52.9" r="6.0"/><circle cx="40.5" cy="52.9" r="6.0"/><circle cx="49.5" cy="52.9" r="6.0"/><circle cx="58.5" cy="52.9" r="6.0"/><circle cx="67.5" cy="52.9" r="6.0"/>
</g>
  <g fill="#225736" stroke="#153621" stroke-width="0.7" stroke-opacity="0.5">
<circle cx="-9.0" cy="58.0" r="6.0"/><circle cx="0.0" cy="58.0" r="6.0"/><circle cx="9.0" cy="58.0" r="6.0"/><circle cx="18.0" cy="58.0" r="6.0"/><circle cx="27.0" cy="58.0" r="6.0"/><circle cx="36.0" cy="58.0" r="6.0"/><circle cx="45.0" cy="58.0" r="6.0"/><circle cx="54.0" cy="58.0" r="6.0"/><circle cx="63.0" cy="58.0" r="6.0"/><circle cx="72.0" cy="58.0" r="6.0"/>
</g>
  </g>
</svg>
